<svg xmlns="http://www.w3.org/2000/svg" viewBox="0 0 800 500" fill="none">
<defs><linearGradient id="bg" x1="60" y1="10" x2="750" y2="490" gradientUnits="userSpaceOnUse"><stop stop-color="#073C50"/><stop offset="1" stop-color="#0B1935"/></linearGradient><linearGradient id="router" x1="250" y1="286" x2="575" y2="370" gradientUnits="userSpaceOnUse"><stop stop-color="#3D6B83"/><stop offset=".5" stop-color="#18354D"/><stop offset="1" stop-color="#0B1E34"/></linearGradient><radialGradient id="glow" cx="0" cy="0" r="1" gradientTransform="matrix(0 250 -290 0 420 230)" gradientUnits="userSpaceOnUse"><stop stop-color="#22D3EE" stop-opacity=".25"/><stop offset="1" stop-color="#22D3EE" stop-opacity="0"/></radialGradient></defs>
<rect width="800" height="500" rx="28" fill="url(#bg)"/><rect width="800" height="500" rx="28" fill="url(#glow)"/>
<g stroke="#67E8F9" stroke-opacity=".13"><path d="M0 100H800M0 180H800M0 260H800M0 340H800M0 420H800"/><path d="M80 0V500M160 0V500M240 0V500M320 0V500M400 0V500M480 0V500M560 0V500M640 0V500M720 0V500"/></g>
<g stroke="#67E8F9" stroke-linecap="round"><path d="M400 230V111" stroke-opacity=".65" stroke-width="2" stroke-dasharray="4 9"/><path d="M400 230V75" stroke-opacity=".4" stroke-width="2" stroke-dasharray="4 12"/><path d="M400 230V45" stroke-opacity=".2" stroke-width="2" stroke-dasharray="4 15"/></g>
<path d="M285 177A163 163 0 0 1 515 177" stroke="#22D3EE" stroke-opacity=".23" stroke-width="3"/><path d="M315 202A121 121 0 0 1 485 202" stroke="#22D3EE" stroke-opacity=".5" stroke-width="4"/><path d="M347 226A77 77 0 0 1 453 226" stroke="#67E8F9" stroke-width="5" stroke-linecap="round"/><path d="M371 247A42 42 0 0 1 429 247" stroke="#A5F3FC" stroke-width="5" stroke-linecap="round"/>
<circle cx="400" cy="270" r="8" fill="#67E8F9"/><circle cx="400" cy="270" r="21" stroke="#67E8F9" stroke-opacity=".4" stroke-width="2"/>
<path d="M260 305L285 275H515L540 305V359Q540 373 526 373H274Q260 373 260 359V305Z" fill="url(#router)" stroke="#7DD3FC" stroke-width="3"/><path d="M285 301H515" stroke="#67E8F9" stroke-opacity=".45" stroke-width="2"/><rect x="316" y="324" width="168" height="24" rx="12" fill="#07172A" stroke="#67E8F9" stroke-opacity=".3"/><g fill="#22D3EE"><circle cx="337" cy="336" r="4"/><circle cx="355" cy="336" r="4"/><circle cx="373" cy="336" r="4"/></g><circle cx="463" cy="336" r="5" fill="#C084FC"/>
<path d="M291 306L260 144Q258 132 247 132Q236 132 238 145L261 307" fill="#1B3A51" stroke="#A5F3FC" stroke-width="3"/><path d="M509 306L540 144Q542 132 553 132Q564 132 562 145L539 307" fill="#1B3A51" stroke="#A5F3FC" stroke-width="3"/>
<path d="M175 220L216 220L216 260L175 260Z" fill="#122D44" stroke="#67E8F9" stroke-width="2"/><rect x="185" y="231" width="21" height="18" rx="3" fill="#22D3EE" fill-opacity=".35"/><path d="M216 240H256" stroke="#67E8F9" stroke-width="2" stroke-dasharray="4 5"/><rect x="584" y="220" width="41" height="40" rx="4" fill="#122D44" stroke="#C084FC" stroke-width="2"/><path d="M594 232H615M594 241H615M594 250H608" stroke="#E9D5FF" stroke-width="2" stroke-linecap="round"/><path d="M544 240H584" stroke="#C084FC" stroke-width="2" stroke-dasharray="4 5"/>
<path d="M140 413H660" stroke="#22D3EE" stroke-opacity=".25" stroke-width="2"/><circle cx="140" cy="413" r="4" fill="#67E8F9"/><circle cx="660" cy="413" r="4" fill="#67E8F9"/>
<text x="52" y="58" fill="#A5F3FC" font-family="Arial,sans-serif" font-size="17" letter-spacing="4">REDES ESTABLES · MEJOR SEÑAL</text>
</svg>